<svg id="Calque_1" data-name="Calque 1" xmlns="http://www.w3.org/2000/svg" xmlns:xlink="http://www.w3.org/1999/xlink" viewBox="0 0 56.95 19.59"><defs><style>.cls-1{fill:none;}.cls-2{clip-path:url(#clip-path);}.cls-3{fill:url(#Dégradé_sans_nom);}.cls-4{clip-path:url(#clip-path-2);}.cls-5{clip-path:url(#clip-path-3);}</style><clipPath id="clip-path" transform="translate(0.34 0.3)"><polygon class="cls-1" points="3.58 0 5.58 17.9 5.9 17.9 8.52 0 14.95 0 17.56 17.9 17.89 17.9 19.89 0 23.45 0 20.99 18.99 14.51 18.99 11.9 1.09 11.57 1.09 8.96 18.99 2.47 18.99 0.02 0 3.58 0"/></clipPath><linearGradient id="Dégradé_sans_nom" x1="-0.34" y1="12.46" x2="56.61" y2="12.46" gradientTransform="matrix(1, 0, 0, -1, 0.34, 22.26)" gradientUnits="userSpaceOnUse"><stop offset="0" stop-color="#8020c3"/><stop offset="1" stop-color="#cc83ff"/></linearGradient><clipPath id="clip-path-2" transform="translate(0.34 0.3)"><path class="cls-1" d="M32.86,0c3.6,0,6.7,2.34,6.7,6.17,0,3.67-2.2,5.37-6.09,6.36-2.59.66-4,1.22-4,3v.31h10V19H26V15.8c0-3.38,2.4-5,5.82-6,2.65-.72,4.24-1.6,4.24-3.78a2.83,2.83,0,0,0-3.16-2.92,3.26,3.26,0,0,0-3.52,3.51v.58H25.9V6.6C25.9,2.23,29.1,0,32.86,0Z"/></clipPath><clipPath id="clip-path-3" transform="translate(0.34 0.3)"><path class="cls-1" d="M48.48,0c5.07,0,7.77,2.61,7.77,7.7v3.58c0,5.1-2.7,7.7-7.77,7.7H42V0ZM45.57,15.74h3c2.86,0,4.15-1.57,4.15-4.34V7.61c0-2.77-1.29-4.34-4.15-4.34h-3Z"/></clipPath></defs><g class="cls-2"><rect class="cls-3" width="56.95" height="19.59"/></g><g class="cls-4"><rect class="cls-3" width="56.95" height="19.59"/></g><g class="cls-5"><rect class="cls-3" width="56.95" height="19.59"/></g></svg>